HIERARCHY
ROOT Hips
{
	OFFSET	0	0	0
	CHANNELS 6  Xposition Yposition Zposition Xrotation Yrotation Zrotation
	JOINT Spine
	{
		OFFSET	0	3.86096	0.772842
		CHANNELS 3  Xrotation Yrotation Zrotation
		JOINT Spine1
		{
			OFFSET	0	6.59073	-1.17692
			CHANNELS 3  Xrotation Yrotation Zrotation
			JOINT Spine2
			{
				OFFSET	0	4.99601	0.535497
				CHANNELS 3  Xrotation Yrotation Zrotation
				JOINT Spine3
				{
					OFFSET	0	5.97874	1.77714
					CHANNELS 3  Xrotation Yrotation Zrotation
					JOINT Spine4
					{
						OFFSET	0	8.85041	-0.906225
						CHANNELS 3  Xrotation Yrotation Zrotation
						JOINT Neck
						{
							OFFSET	0	4.22513	-2.95994
							CHANNELS 3  Xrotation Yrotation Zrotation
							JOINT Head
							{
								OFFSET	0	5.07251	-1.51822
								CHANNELS 3  Xrotation Yrotation Zrotation
								End Site
								{
									OFFSET	0	10.5805	-0.511959
								}
							}
						}
					}
					JOINT LeftShoulder
					{
						OFFSET	-2.54214	10.757	-5.07251
						CHANNELS 3  Xrotation Yrotation Zrotation
						JOINT LeftArm
						{
							OFFSET	-5.56203	-1.51822	1.94781
							CHANNELS 3  Xrotation Yrotation Zrotation
							JOINT LeftForeArm
							{
								OFFSET	-18.5397	-0.846185	1.32335
								CHANNELS 3  Xrotation Yrotation Zrotation
								JOINT LeftHand
								{
									OFFSET	-14.8524	-1.02638	1.06015
									CHANNELS 3  Xrotation Yrotation Zrotation
									End Site
									{
										OFFSET	-5.42037	-0.374579	0.386875
									}
								}
							}
						}
					}
					JOINT RightShoulder
					{
						OFFSET	2.54214	10.757	-5.07251
						CHANNELS 3  Xrotation Yrotation Zrotation
						JOINT RightArm
						{
							OFFSET	5.56203	-1.51822	1.94781
							CHANNELS 3  Xrotation Yrotation Zrotation
							JOINT RightForeArm
							{
								OFFSET	18.5397	-0.846185	1.32335
								CHANNELS 3  Xrotation Yrotation Zrotation
								JOINT RightHand
								{
									OFFSET	14.8524	-1.02638	1.06015
									CHANNELS 3  Xrotation Yrotation Zrotation
									End Site
									{
										OFFSET	5.42037	-0.374579	0.386875
									}
								}
							}
						}
					}
				}
			}
		}
	}
	JOINT LeftUpLeg
	{
		OFFSET	-5.25642	-1.93048	-0.38642
		CHANNELS 3  Xrotation Yrotation Zrotation
		JOINT LeftLeg
		{
			OFFSET	-1.25813	-24.6526	-0.385374
			CHANNELS 3  Xrotation Yrotation Zrotation
			JOINT LeftFoot
			{
				OFFSET	-1.21384	-22.3749	1.92424
				CHANNELS 3  Xrotation Yrotation Zrotation
				JOINT LeftToeBase
				{
					OFFSET	0	-2.83303	-7.52453
					CHANNELS 3  Xrotation Yrotation Zrotation
					End Site
					{
						OFFSET	0	-1.13321	-4.53285
					}
				}
			}
		}
	}
	JOINT RightUpLeg
	{
		OFFSET	5.25642	-1.93048	-0.38642
		CHANNELS 3  Xrotation Yrotation Zrotation
		JOINT RightLeg
		{
			OFFSET	1.25813	-24.6526	-0.385374
			CHANNELS 3  Xrotation Yrotation Zrotation
			JOINT RightFoot
			{
				OFFSET	1.21384	-22.3749	1.92424
				CHANNELS 3  Xrotation Yrotation Zrotation
				JOINT RightToeBase
				{
					OFFSET	0	-2.83303	-7.52453
					CHANNELS 3  Xrotation Yrotation Zrotation
					End Site
					{
						OFFSET	0	-1.13321	-4.53285
					}
				}
			}
		}
	}
}
MOTION
Frames: 15
Frame Time: 0.033334
 3.54419 52.5038 -19.545 18.2173 34.5189 -29.5258 179.987 179.784 -176.553 175.482 179.57 -174.255 175.862 178.708 -174.254 178.403 179.784 -176.553 175.245 -179.905 -178.855 170.67 -176.658 177.674 177.194 -175.615 178.93 174.598 -164.364 168.431 35.1918 26.0277 26.4722 94.1183 -31.914 97.8744 -0 -5.10634 -13.6631 176.733 -176.349 -173.902 2.46648 48.028 -44.7577 132.34 133.949 -141.944 -0 -4.39499 44.9598 176.294 176.677 -151.921 141.649 -167.251 174.857 1.61434 -1.89181 -10.9904 179.844 180 -180 4.29725 6.79551 29.0595 133.765 -174.849 -167.48 170.683 179.939 -169.881 2.05667 0 0
 4.05785 52.5132 -19.9776 19.0989 37.3988 -31.1363 179.985 179.745 -176.52 175.264 179.493 -174.199 175.555 178.478 -174.197 178.046 179.745 -176.52 175.675 -179.913 -178.843 172.098 -175.856 177.103 177.622 -174.777 178.703 174.694 -164.15 168.632 37.0048 25.8843 26.1453 94.6758 -30.9211 99.349 -0 -4.21231 -13.5688 176.825 -177.325 -174.016 5.63512 47.4202 -47.3987 135.444 136.29 -146.175 -0 -4.90074 44.024 174.908 178.895 -152.252 145.624 -164.479 174.689 4.93258 -1.5796 -10.8056 179.887 180 -180 5.68697 8.26568 30.5993 132.268 -176.643 -167.834 160.123 179.993 -170.729 2.07139 0 0
 4.81896 52.543 -20.866 19.7591 40.4407 -33.6735 179.98 179.7 -176.183 175.044 179.403 -173.638 175.23 178.208 -173.636 177.678 179.7 -176.183 176.138 -179.914 -178.731 173.62 -175.392 177.099 178.076 -174.162 178.657 174.807 -164.061 168.873 39.3409 26.2875 24.8288 94.656 -30.2079 99.8824 -0 -3.40584 -13.0414 176.851 -178.034 -174.023 8.1231 46.279 -50.1188 137.803 138.794 -149.48 -0 -5.2187 43.43 174.277 -179.182 -152.31 148.194 -162.161 174.597 6.38969 -1.79942 -10.2065 179.927 180 -180 6.28646 9.73214 32.5329 132.368 -178.521 -167.681 156.337 -179.959 -171.501 2.08027 0 0
 5.70533 52.7617 -21.4791 20.1384 43.8349 -35.2647 179.979 179.706 -176.007 174.882 179.414 -173.345 175.038 178.242 -173.342 177.493 179.706 -176.007 176.263 -179.913 -178.672 174.144 -174.931 177.177 178.228 -173.344 178.608 174.753 -164.316 168.764 40.017 26.2005 24.2986 94.7108 -29.4879 99.9964 -0 -2.42695 -12.4145 176.727 -179.152 -173.719 12.0869 45.7591 -52.9729 139.27 140.479 -151.653 -0 -5.55938 43.2229 173.948 -177.246 -153.109 152.678 -162.398 174.729 5.66757 -2.24286 -9.59123 179.946 180 -180 6.73152 9.46235 32.234 130.284 -179.083 -168.607 157.541 -179.844 -171.966 2.09013 0 0
 6.64532 52.8871 -22.4869 21.3986 46.3329 -37.2381 179.979 179.708 -175.784 174.593 179.42 -172.972 174.767 178.259 -172.969 177.373 179.708 -175.784 176.003 -179.902 -178.598 173.673 -174.534 176.942 178.082 -172.752 178.483 174.662 -164.555 168.577 40.6744 25.663 23.7349 95.6716 -28.6801 101.927 -0 -1.58866 -10.9273 176.226 179.715 -172.674 15.6464 45.6421 -55.4146 140.345 141.838 -153.319 -0 -5.78131 43.1318 173.858 -175.125 -154.326 155.645 -162.964 174.959 5.34033 -2.41624 -9.16469 179.966 180 -180 7.35846 9.81307 32.3497 128.796 -179.463 -168.832 159.964 -179.924 -172.414 2.09449 0 0
 7.75254 52.8399 -23.3101 22.5221 48.324 -38.8828 179.979 179.72 -175.679 174.425 179.442 -172.798 174.574 178.327 -172.795 177.18 179.72 -175.679 176.134 -179.903 -178.563 174.209 -173.513 176.265 178.24 -171.599 178.196 174.638 -165.296 168.557 40.6052 25.3347 23.2933 96.0915 -27.9962 102.751 -0 -0.254011 -9.70481 175.831 177.383 -171.738 19.0828 45.5488 -57.3617 142.283 144.332 -156.017 -0 -6.20585 42.7518 173.962 -172.926 -155.088 158.386 -163.65 174.51 4.3676 -1.9376 -8.86742 179.973 180 -180 7.84804 8.30569 31.0714 126.518 -178.023 -169.819 160.974 -179.36 -172.423 2.10921 0 0
 8.85915 53.0714 -24.1637 23.1556 51.5999 -40.6089 179.985 179.809 -175.475 174.255 179.621 -172.458 174.444 178.863 -172.457 177.057 179.809 -175.475 176.077 -179.897 -178.495 174.229 -172.798 175.816 178.241 -170.708 177.99 174.496 -166.472 168.305 40.28 24.7736 22.6425 96.3565 -27.4324 103.411 -0 0.535928 -7.95049 175.21 174.839 -170.309 21.0641 45.9325 -58.6622 143.282 146.288 -157.543 -0 -6.23043 42.5219 175.991 -170.605 -154.902 159.732 -163.997 173.35 0.931899 -1.70758 -8.52496 179.976 180 -180 8.19472 7.81371 30.4384 125.586 -176.102 -170.661 161.037 -179.123 -172.796 2.10177 0 0
 9.65338 53.265 -24.9288 23.8724 53.5561 -42.7091 179.983 179.8 -175.251 173.987 179.602 -172.084 174.152 178.806 -172.083 176.839 179.8 -175.251 176.086 -179.892 -178.421 174.518 -172.501 175.884 178.322 -170.179 177.965 174.596 -167.834 168.59 39.6587 23.9488 22.8564 96.5784 -26.7715 103.903 -0 1.21792 -6.62142 174.925 172.663 -169.572 22.3071 45.9469 -59.3574 144.282 148.765 -159.337 -0 -6.23352 42.5535 177.758 -168.892 -154.259 159.862 -163.872 172.383 177.695 -178.028 171.938 179.979 180 -180 7.93801 8.00493 29.6878 125.039 -174.156 -170.436 160.67 -178.846 -172.9 2.09762 0 0
 10.7127 53.3593 -25.9601 26.159 56.5733 -45.791 179.983 179.807 -175.075 173.816 179.617 -171.792 173.97 178.852 -171.79 176.69 179.807 -175.075 176.108 -179.889 -178.362 174.738 -172.09 175.503 178.389 -169.833 177.831 174.223 -168.794 167.844 38.847 22.6367 22.8272 96.2201 -26.5266 103.254 -0 1.27293 -5.46204 174.408 170.847 -168.368 21.5603 45.1481 -56.8044 145.244 151.477 -161.743 -0 -6.39673 42.3151 179.343 -167.089 -153.642 159.925 -163.858 170.179 174.682 -178.017 172.275 179.981 180 -180 7.75686 7.8755 27.6932 123.947 -171.407 -169.983 160.301 -178.872 -173.031 2.0974 0 0
 11.3828 53.3696 -26.7633 27.8772 58.5765 -47.935 179.979 179.757 -175.026 173.616 179.518 -171.71 173.731 178.553 -171.708 176.537 179.757 -175.026 176.107 -179.887 -178.346 174.9 -171.498 174.963 178.439 -169.298 177.636 173.934 -169.437 167.267 37.885 21.6367 23.1735 95.7633 -26.3858 102.036 -0 1.45318 -4.71882 174.256 168.749 -167.913 21.4966 45.1273 -54.9463 145.242 153.148 -162.631 -0 -6.13677 42.5742 1.18653 -14.3713 27.1312 159.136 -164.526 168.604 172.865 -177.381 172.763 179.991 180 -180 7.11682 8.55518 25.3165 123.39 -168.996 -169.065 159.482 -178.581 -173.1 2.08565 0 0
 12.102 53.5153 -27.1297 29.6418 61.0091 -50.4065 179.981 179.78 -174.975 173.544 179.563 -171.624 173.675 178.689 -171.622 176.498 179.78 -174.975 176.055 -179.885 -178.329 174.81 -170.965 174.367 178.415 -168.852 177.429 173.552 -169.783 166.47 36.7977 20.4749 24.2663 95.2929 -26.2179 101.145 -0 1.51749 -4.03347 173.553 168.823 -166.407 18.8358 43.4268 -49.8732 145.278 155.002 -163.644 -0 -5.99303 42.9995 3.02397 -14.8925 28.4882 158.8 -165.4 167.288 170.227 -176.553 173.489 0.000611689 0 0 5.9846 9.90744 21.7763 123.929 -166.423 -166.628 157.538 -178.438 -173.423 2.06665 0 0
 12.5727 53.6137 -27.7664 32.7235 63.9706 -54.1847 179.975 179.712 -175.066 173.421 179.428 -171.776 173.487 178.284 -171.772 176.339 179.712 -175.066 176.215 -179.891 -178.359 175.316 -170.352 173.415 178.585 -168.785 177.166 173.388 -169.772 166.119 36.5413 19.3819 26.1004 95.4845 -25.9587 101.463 -0 1.20563 -3.04906 173.283 168.793 -165.822 17.1357 43.1214 -47.4259 143.995 154.878 -162.812 -0 -5.29356 44.0328 4.98882 -15.3773 30.1196 158.24 -166.53 166.071 167.925 -175.773 174.184 0.0190786 0 0 3.99238 11.6272 18.1374 124.69 -163.96 -163.943 155.813 -178.095 -173.703 2.03206 0 0
 13.2347 53.9645 -27.9914 38.1263 67.7247 -60.4198 179.978 179.743 -175.044 173.431 179.489 -171.74 173.479 178.467 -171.738 176.239 179.743 -175.044 176.457 -179.898 -178.351 175.96 -169.841 172.704 178.796 -168.767 176.975 173.269 -169.86 165.868 36.796 18.6292 28.4084 95.1919 -25.8785 101.07 -0 1.37578 -2.83576 173.34 169.467 -165.993 14.6553 42.0185 -45.7885 142.842 155.034 -162.141 -0 -4.71588 45.1359 7.53542 -15.0281 32.7099 157.83 -168.146 165.278 163.081 -175.053 174.959 0.0282051 0 0 1.74329 14.5429 14.3958 126.086 -162.044 -161.617 152.049 -177.74 -173.859 1.99428 0 0
 13.5876 54.2991 -28.1535 44.5869 70.4354 -67.2839 179.983 179.803 -175.13 173.345 179.609 -171.884 173.395 178.827 -171.882 176.067 179.803 -175.13 176.674 -179.906 -178.38 176.694 -169.68 172.87 179.016 -168.597 177.015 172.867 -169.513 164.974 36.4982 17.7331 30.4218 94.8145 -25.8634 100.317 -0 2.09557 -2.45121 173.684 170.829 -166.83 12.9671 40.8022 -45.3433 141.517 154.735 -160.91 -0 -4.32595 46.276 9.29956 -14.7117 36.1479 156.306 -170.46 163.703 159.12 -174.053 176.304 0.0303586 0 0 179.29 161.803 -169.11 127.211 -160.29 -160.721 148.783 -177.251 -174.071 1.96945 0 0
 14.3723 53.8005 -30.9916 5.21443 19.3479 1.93408 0.00169067 0.168504 -0.574855 177.932 179.663 179.042 178.165 178.989 179.042 179.286 179.831 179.425 177.752 179.992 179.809 175.557 179.059 179.942 178.665 178.272 -179.865 3.04931 3.95209 5.67094 35.2765 16.7483 32.6874 93.1357 -26.0056 99.3109 -0 2.68685 -1.95534 1.18429 2.70178 -2.33769 9.57875 38.0709 -43.7248 140.584 156.093 -161.101 -0 -3.96713 47.4019 173.178 -173.999 177.099 165.711 176.314 172.505 15.1608 0.998532 9.36348 0.0211586 0 0 15.6268 21.8211 -9.1494 150.948 -174.937 178.911 177.62 -176.448 174.587 179.972 180 -180
